<?xml version="1.0" standalone="no"?><!DOCTYPE svg PUBLIC "-//W3C//DTD SVG 1.1//EN" "http://www.w3.org/Graphics/SVG/1.1/DTD/svg11.dtd"><svg t="1488886914349" class="icon" style="" viewBox="0 0 1024 1024" version="1.1" xmlns="http://www.w3.org/2000/svg" p-id="3524" xmlns:xlink="http://www.w3.org/1999/xlink" width="200" height="200"><defs><style type="text/css"></style></defs><path d="M740.3 65.93C706.99 49.4 671.51 36.6 634.39 28.1l0-0.01c-34.69-7.93-70.8-12.14-107.89-12.14-16.76 0-33.31 0.86-49.62 2.53-5.73 0.59-11.41 1.3-17.07 2.09-20.08 2.78-39.75 6.8-58.96 11.97C195.82 87.81 44.91 275.03 44.91 497.51c0 222.5 150.91 409.71 355.94 464.98 19.21 5.17 38.88 9.19 58.96 11.97 5.66 0.78 11.34 1.5 17.07 2.09 16.31 1.67 32.86 2.53 49.62 2.53 37.09 0 73.2-4.21 107.89-12.15 37.12-8.5 72.6-21.3 105.91-37.83 158.69-78.76 267.78-242.42 267.78-431.59C1008.08 308.35 898.99 144.69 740.3 65.93zM695.5 424.63c-75.25-32.49-306.94-25.24-374.89 6 90.13 6.01 180.28 12.01 270.41 18.01-2.05 4-4.1 8-6.15 12-73.74 48.01-147.5 96.03-221.24 144.04l0 6c134.47 18.1 281.18 1.86 405.61-12l0 6-12.29 0c-22.78 17.92-26.37 8.14-30.73 48.01 10.25 50.01 20.49 100.03 30.73 150.04-2.05 2-4.09 4-6.14 6l-24.59 0c-49.2-41.56-137.91-101.33-215.09-108.03-63.5 36.01-127.02 72.02-190.52 108.03-8.19-4-16.39-8-24.58-12 14.34-78.01 28.68-156.05 43.02-234.06-57.35-52.01-114.72-104.03-172.08-156.04 1.39-4.05 2.77-8.1 4.15-12.14 0.22-0.65 0.44-1.31 0.67-1.96 0.44-1.3 0.88-2.6 1.33-3.91 75.79-10 151.6-20 227.39-30.01 40.96-72.01 81.94-144.04 122.91-216.05l12.29 0c34.82 74.01 69.65 148.04 104.48 222.06 79.88 8 159.79 16 239.67 24 2.05 4 4.1 8.01 6.15 12.01-57.35 56-114.72 112.03-172.08 168.04l0 30.01c-75.78-6-151.6-12.01-227.38-18.01 4.09-2 8.19-4 12.29-6 69.64-50.01 139.3-100.03 208.95-150.04L695.5 424.63z" p-id="3525"></path></svg>